<svg width="24" height="24" viewBox="0 0 24 24" fill="none" xmlns="http://www.w3.org/2000/svg">
<path d="M21.76 15.92L15.36 4.4C14.5 2.85 13.31 2 12 2C10.69 2 9.49998 2.85 8.63998 4.4L2.23998 15.92C1.42998 17.39 1.33998 18.8 1.98998 19.91C2.63998 21.02 3.91998 21.63 5.59998 21.63H18.4C20.08 21.63 21.36 21.02 22.01 19.91C22.66 18.8 22.57 17.38 21.76 15.92Z" fill="#D63030"/>
<path d="M12 13.75C11.59 13.75 11.25 13.41 11.25 13V8C11.25 7.59 11.59 7.25 12 7.25C12.41 7.25 12.75 7.59 12.75 8V13C12.75 13.41 12.41 13.75 12 13.75Z" fill="#F5F5F5"/>
<path d="M12 17.0001C11.94 17.0001 11.87 16.9901 11.8 16.9801C11.74 16.9701 11.68 16.9501 11.62 16.9201C11.56 16.9001 11.5 16.8701 11.44 16.8301C11.39 16.7901 11.34 16.7501 11.29 16.7101C11.11 16.5201 11 16.2601 11 16.0001C11 15.7401 11.11 15.4801 11.29 15.2901C11.34 15.2501 11.39 15.2101 11.44 15.1701C11.5 15.1301 11.56 15.1001 11.62 15.0801C11.68 15.0501 11.74 15.0301 11.8 15.0201C11.93 14.9901 12.07 14.9901 12.19 15.0201C12.26 15.0301 12.32 15.0501 12.38 15.0801C12.44 15.1001 12.5 15.1301 12.56 15.1701C12.61 15.2101 12.66 15.2501 12.71 15.2901C12.89 15.4801 13 15.7401 13 16.0001C13 16.2601 12.89 16.5201 12.71 16.7101C12.66 16.7501 12.61 16.7901 12.56 16.8301C12.5 16.8701 12.44 16.9001 12.38 16.9201C12.32 16.9501 12.26 16.9701 12.19 16.9801C12.13 16.9901 12.06 17.0001 12 17.0001Z" fill="#F5F5F5"/>
</svg>
